<?xml version="1.0" encoding="UTF-8" standalone="no"?>
<svg xmlns:dc="http://purl.org/dc/elements/1.1/" xmlns:cc="http://creativecommons.org/ns#" xmlns:rdf="http://www.w3.org/1999/02/22-rdf-syntax-ns#" xmlns:svg="http://www.w3.org/2000/svg" xmlns="http://www.w3.org/2000/svg" id="svg6218" height="64" width="240" version="1.0">
  <metadata id="metadata1336">
    <rdf:RDF>
      <cc:Work rdf:about="">
        <dc:format>image/svg+xml</dc:format>
        <dc:type rdf:resource="http://purl.org/dc/dcmitype/StillImage" />
        <dc:title></dc:title>
      </cc:Work>
    </rdf:RDF>
  </metadata>
  <defs id="defs6220" />
  <path id="path13406" style="color:#000000;display:inline;overflow:visible;visibility:visible;fill:#000000;fill-opacity:1;fill-rule:nonzero;stroke:#676767;stroke-width:0.5231905;stroke-linecap:round;stroke-linejoin:miter;stroke-miterlimit:4;stroke-dasharray:none;stroke-dashoffset:0;stroke-opacity:1;marker:none;marker-start:none;marker-mid:none;marker-end:none" d="m 61.870074,42.78116 a 12.856606,12.856606 0 1 1 -25.713212,0 12.856606,12.856606 0 1 1 25.713212,0 z" />
  <path id="text13438" style="font-style:normal;font-variant:normal;font-weight:bold;font-stretch:normal;font-size:12.28141117px;line-height:125%;font-family:FreeSans;text-align:center;writing-mode:lr-tb;text-anchor:middle;display:inline;fill:#ffffff;fill-opacity:1;stroke:none;stroke-width:1px;stroke-linecap:butt;stroke-linejoin:miter;stroke-opacity:1" d="m 39.429503,47.299841 v -8.663704 h 6.614494 v 1.465619 H 41.23069 v 1.920672 h 4.478627 v 1.45971 H 41.23069 v 2.357993 h 4.98369 v 1.45971 z m 9.590104,0 -2.129782,-8.663704 h 1.843783 l 1.344805,5.951125 1.630805,-5.951125 h 2.141951 l 1.563869,6.051592 1.369146,-6.051592 h 1.813357 l -2.166293,8.663704 h -1.910719 l -1.776846,-6.477094 -1.770762,6.477094 z" />
  <path id="path13412" style="color:#000000;display:inline;overflow:visible;visibility:visible;fill:#cc9900;fill-opacity:1;fill-rule:nonzero;stroke:#676767;stroke-width:0.5231905;stroke-linecap:round;stroke-linejoin:miter;stroke-miterlimit:4;stroke-dasharray:none;stroke-dashoffset:0;stroke-opacity:1;marker:none;marker-start:none;marker-mid:none;marker-end:none" d="m 149.14339,42.78116 a 12.856606,12.856606 0 1 1 -25.71321,0 12.856606,12.856606 0 1 1 25.71321,0 z" />
  <path id="text13426" style="font-style:normal;font-variant:normal;font-weight:bold;font-stretch:normal;font-size:12.28142166px;line-height:125%;font-family:FreeSans;text-align:center;writing-mode:lr-tb;text-anchor:middle;display:inline;fill:#ffffcc;fill-opacity:1;stroke:none;stroke-width:1px;stroke-linecap:butt;stroke-linejoin:miter;stroke-opacity:1" d="m 131.30632,47.299848 -3.18859,-8.663711 h 1.95332 l 2.25757,6.412092 2.18455,-6.412092 h 1.91072 l -3.19467,8.663711 z m 6.03641,-8.663711 h 1.80119 v 4.692351 c 0,0.744633 0.0223,1.227263 0.067,1.447892 0.077,0.354588 0.26064,0.639241 0.5507,0.853961 0.29005,0.214722 0.68659,0.322083 1.18963,0.322082 0.51114,10e-7 0.89653,-0.10145 1.15617,-0.304353 0.25963,-0.2029 0.4158,-0.452095 0.46855,-0.747585 0.0528,-0.295485 0.0791,-0.785995 0.0791,-1.471531 v -4.792817 h 1.80119 v 4.550517 c -1e-5,1.040121 -0.0487,1.774901 -0.14604,2.204342 -0.0974,0.429444 -0.27689,0.791908 -0.53854,1.087396 -0.26166,0.295489 -0.61155,0.530893 -1.04968,0.706216 -0.43813,0.175324 -1.01013,0.262985 -1.71599,0.262985 -0.85192,0 -1.49795,-0.09554 -1.93811,-0.286624 -0.44016,-0.191082 -0.78802,-0.439292 -1.04359,-0.74463 -0.25557,-0.305336 -0.42393,-0.625448 -0.50506,-0.960337 -0.11765,-0.496417 -0.17647,-1.229227 -0.17647,-2.198431 z" />
  <path id="path13410" style="color:#000000;display:inline;overflow:visible;visibility:visible;fill:#cc6633;fill-opacity:1;fill-rule:nonzero;stroke:#676767;stroke-width:0.52328289;stroke-linecap:round;stroke-linejoin:miter;stroke-miterlimit:4;stroke-dasharray:none;stroke-dashoffset:0;stroke-opacity:1;marker:none;marker-start:none;marker-mid:none;marker-end:none" d="m 120.0523,42.78111 a 12.856606,12.856606 0 1 1 -25.713208,0 12.856606,12.856606 0 1 1 25.713208,0 z" />
  <path id="text13430" style="font-style:normal;font-variant:normal;font-weight:bold;font-stretch:normal;font-size:12.28141975px;line-height:125%;font-family:FreeSans;text-align:center;writing-mode:lr-tb;text-anchor:middle;display:inline;fill:#ffcc99;fill-opacity:1;stroke:none;stroke-width:1px;stroke-linecap:butt;stroke-linejoin:miter;stroke-opacity:1" d="m 99.486001,47.2998 v -8.663711 h 6.614499 v 1.465621 h -4.81331 v 1.920673 h 4.47863 v 1.45971 h -4.47863 v 2.357995 h 4.98369 V 47.2998 Z m 8.342669,0 v -8.663711 h 1.7525 l 3.65107,5.785656 v -5.785656 h 1.67339 V 47.2998 h -1.80727 l -3.59629,-5.649733 V 47.2998 Z" />
  <path id="path13408" style="color:#000000;display:inline;overflow:visible;visibility:visible;fill:#cc3333;fill-opacity:1;fill-rule:nonzero;stroke:#676767;stroke-width:0.5231905;stroke-linecap:round;stroke-linejoin:miter;stroke-miterlimit:4;stroke-dasharray:none;stroke-dashoffset:0;stroke-opacity:1;marker:none;marker-start:none;marker-mid:none;marker-end:none" d="m 90.961184,42.78116 a 12.856606,12.856606 0 1 1 -25.713212,0 12.856606,12.856606 0 1 1 25.713212,0 z" />
  <path id="text13442" style="font-style:normal;font-variant:normal;font-weight:bold;font-stretch:normal;font-size:12.28141117px;line-height:125%;font-family:FreeSans;text-align:center;writing-mode:lr-tb;text-anchor:middle;display:inline;fill:#ffcccc;fill-opacity:1;stroke:none;stroke-width:1px;stroke-linecap:butt;stroke-linejoin:miter;stroke-opacity:1" d="m 75.45461,44.114489 1.74642,0.537789 c -0.267751,0.945563 -0.712977,1.647837 -1.335678,2.106828 -0.622714,0.458991 -1.41276,0.688487 -2.370142,0.688487 -1.184569,0 -2.158182,-0.392999 -2.920844,-1.178997 C 69.8117,45.4826 69.430368,44.40801 69.430369,43.044824 c -10e-7,-1.441976 0.38336,-2.561874 1.150082,-3.359698 0.766719,-0.797809 1.774815,-1.196717 3.024291,-1.196726 1.091253,9e-6 1.977647,0.313226 2.659185,0.939652 0.405665,0.370352 0.709918,0.902229 0.912763,1.595634 l -1.782931,0.413683 c -0.105482,-0.449135 -0.325559,-0.80372 -0.660233,-1.063756 -0.334686,-0.260022 -0.741372,-0.390036 -1.220061,-0.390044 -0.66125,8e-6 -1.197752,0.230488 -1.609506,0.691442 -0.411761,0.460967 -0.61764,1.207565 -0.617638,2.239797 -2e-6,1.095278 0.202835,1.875366 0.60851,2.340264 0.405669,0.464903 0.933043,0.697353 1.582123,0.697352 0.478689,10e-7 0.890447,-0.147742 1.235274,-0.443232 0.344816,-0.295486 0.592276,-0.760386 0.742382,-1.394703 z m 3.304204,3.185359 v -8.663704 h 3.791011 c 0.953326,8e-6 1.646012,0.07782 2.07806,0.233436 0.432034,0.155631 0.77787,0.432404 1.037508,0.830321 0.259622,0.39793 0.389437,0.852981 0.389445,1.365153 -8e-6,0.650079 -0.196759,1.186881 -0.590254,1.61041 -0.393509,0.423536 -0.981734,0.69046 -1.764676,0.800772 0.389439,0.220634 0.710935,0.462934 0.964487,0.7269 0.253538,0.263971 0.595317,0.732812 1.025338,1.406522 l 1.089231,1.69019 h -2.154122 l -1.302209,-1.885212 c -0.462473,-0.67371 -0.778897,-1.098227 -0.949274,-1.273553 -0.170388,-0.175319 -0.350912,-0.295484 -0.541574,-0.360495 -0.19067,-0.065 -0.492896,-0.0975 -0.906679,-0.09751 h -0.365105 v 3.616771 z m 1.801187,-4.999654 h 1.332635 c 0.864078,5e-6 1.403622,-0.03546 1.618634,-0.106376 0.215,-0.07092 0.383355,-0.193047 0.505063,-0.366405 0.121695,-0.173348 0.182546,-0.390038 0.182552,-0.650073 -6e-6,-0.291542 -0.08012,-0.526947 -0.240361,-0.706216 -0.160247,-0.179256 -0.386409,-0.292526 -0.678487,-0.339811 -0.146048,-0.01969 -0.584174,-0.02954 -1.31438,-0.02954 h -1.405656 z" />
  <path id="path13404" style="color:#000000;display:inline;overflow:visible;visibility:visible;fill:#000000;fill-opacity:1;fill-rule:nonzero;stroke:#676767;stroke-width:0.5231905;stroke-linecap:round;stroke-linejoin:miter;stroke-miterlimit:4;stroke-dasharray:none;stroke-dashoffset:0;stroke-opacity:1;marker:none;marker-start:none;marker-mid:none;marker-end:none" d="m 32.778962,42.78116 a 12.856606,12.856606 0 1 1 -25.713212,0 12.856606,12.856606 0 1 1 25.713212,0 z" />
  <path id="text13434" style="font-style:normal;font-variant:normal;font-weight:bold;font-stretch:normal;font-size:12.28141594px;line-height:125%;font-family:FreeSans;text-align:center;writing-mode:lr-tb;text-anchor:middle;display:inline;fill:#cc3333;fill-opacity:1;stroke:none;stroke-width:1px;stroke-linecap:butt;stroke-linejoin:miter;stroke-opacity:1" d="m 12.066524,47.299841 v -8.663707 h 6.614497 v 1.465619 h -4.813309 v 1.920672 h 4.478629 v 1.459711 h -4.478629 v 2.357995 h 4.983691 v 1.45971 z m 7.41773,0 3.048631,-4.520966 -2.762633,-4.142741 h 2.105443 l 1.789018,2.783496 1.752506,-2.783496 h 2.087187 l -2.774802,4.207749 3.048632,4.455958 h -2.172379 l -1.977655,-2.996248 -1.983741,2.996248 z" />
  <text xml:space="preserve" id="text8575" style="font-style:normal;font-variant:normal;font-weight:normal;font-stretch:normal;font-size:11.22072601px;line-height:125%;font-family:'Bitstream Vera Sans';text-align:end;writing-mode:lr-tb;text-anchor:end;display:inline;fill:#333333;fill-opacity:1;stroke:none;stroke-width:1px;stroke-linecap:butt;stroke-linejoin:miter;stroke-opacity:1" transform="scale(1.0147258,0.98548785)" y="16.367336" x="19.227837"><tspan id="tspan8579" style="text-align:center;text-anchor:middle;fill:#333333" y="16.367336" x="19.227837">Extinct</tspan></text>
  <path id="JasmineUPC_bracket" style="font-style:normal;font-weight:normal;font-size:110.84521484px;font-family:'Bitstream Vera Sans';display:inline;fill:#333333;fill-opacity:1;stroke:none;stroke-width:1px;stroke-linecap:butt;stroke-linejoin:miter;stroke-opacity:1" d="m 77.721366,25.413651 c -2.953341,6e-6 -5.275564,0.236381 -6.966673,0.709129 -1.690992,0.472755 -2.88188,1.269241 -3.572664,2.389455 7.8e-5,-1.541581 0.470482,-2.726029 1.411187,-3.55335 0.94087,-0.82731 2.411618,-1.400265 4.412245,-1.718866 2.000737,-0.318586 4.692125,-0.477883 8.074175,-0.477891 h 15.505303 c 2.072195,8e-6 3.715601,-0.06679 4.930251,-0.200405 1.21472,-0.133597 2.31036,-0.447053 3.28683,-0.940366 1.23856,-0.781059 1.91738,-1.474772 2.03641,-2.081138 0.59548,1.017455 1.71492,1.819077 3.35829,2.404871 1.57201,0.5447 3.91805,0.817046 7.03814,0.817038 h 17.54171 c 5.02552,8e-6 8.34809,0.483037 9.96768,1.449088 1.6434,0.924957 2.46512,2.358626 2.46514,4.301019 -0.88126,-1.171602 -2.11385,-1.980931 -3.69771,-2.427994 -1.58386,-0.447054 -3.85251,-0.670584 -6.80589,-0.67059 h -17.86324 c -3.525,6e-6 -6.22233,-0.238939 -8.09205,-0.716835 -1.86967,-0.477885 -3.17367,-1.395127 -3.91207,-2.751726 -0.69067,1.397709 -2.03043,2.325227 -4.01922,2.782557 -1.98873,0.457342 -4.888544,0.68601 -8.699402,0.686004 z" />
  <text xml:space="preserve" id="text2194" style="font-style:normal;font-variant:normal;font-weight:normal;font-stretch:normal;font-size:11.22074223px;line-height:125%;font-family:'Bitstream Vera Sans';text-align:end;writing-mode:lr-tb;text-anchor:end;display:inline;fill:#333333;fill-opacity:1;stroke:none;stroke-width:1px;stroke-linecap:butt;stroke-linejoin:miter;stroke-opacity:1" transform="scale(1.0147258,0.98548785)" y="16.482706" x="105.91683"><tspan id="tspan2202" style="text-align:center;text-anchor:middle;fill:#333333" y="16.482706" x="105.91683">Threatened</tspan></text>
  <path id="path1917" style="display:inline;fill:#333333;fill-rule:evenodd;stroke:#333333;stroke-width:1.03434706px;stroke-linecap:butt;stroke-linejoin:miter;stroke-opacity:1" d="m 19.922363,19.200711 v 7.424634" />
  <path id="path13414" style="color:#000000;display:inline;overflow:visible;visibility:visible;fill:#006666;fill-opacity:1;fill-rule:nonzero;stroke:#676767;stroke-width:0.5231905;stroke-linecap:round;stroke-linejoin:miter;stroke-miterlimit:4;stroke-dasharray:none;stroke-dashoffset:0;stroke-opacity:1;marker:none;marker-start:none;marker-mid:none;marker-end:none" d="m 207.32559,42.78115 a 12.856606,12.856606 0 1 1 -25.71321,0 12.856606,12.856606 0 1 1 25.71321,0 z" />
  <path id="text1899" style="font-style:normal;font-variant:normal;font-weight:bold;font-stretch:normal;font-size:12.28143501px;line-height:125%;font-family:FreeSans;text-align:center;writing-mode:lr-tb;text-anchor:middle;display:inline;fill:#99cc99;fill-opacity:1;stroke:none;stroke-width:1px;stroke-linecap:butt;stroke-linejoin:miter;stroke-opacity:1" d="m 194.99243,47.299811 h -1.7099 v -3.203095 c -1e-5,-0.677649 -0.0365,-1.115957 -0.10954,-1.314923 -0.0731,-0.198958 -0.19168,-0.353597 -0.35598,-0.463918 -0.1643,-0.11031 -0.36206,-0.165468 -0.5933,-0.165473 -0.29613,5e-6 -0.56185,0.0788 -0.79715,0.236391 -0.23529,0.157598 -0.39654,0.36641 -0.48376,0.626435 -0.0873,0.260034 -0.13083,0.740695 -0.13082,1.441984 v 2.842599 h -1.70992 v -6.276175 h 1.58821 v 0.921924 c 0.56388,-0.709166 1.27382,-1.063752 2.12979,-1.063758 0.37727,6e-6 0.72209,0.066 1.03446,0.197977 0.31236,0.131992 0.54867,0.300419 0.70892,0.505285 0.16023,0.204878 0.27179,0.437329 0.33467,0.697353 0.0629,0.260034 0.0944,0.63235 0.0944,1.116947 z m 4.7038,-6.276175 v 1.323788 h -1.16835 v 2.529381 c 0,0.512182 0.0112,0.810625 0.0335,0.895331 0.0223,0.0847 0.0731,0.15464 0.15212,0.209797 0.0791,0.05516 0.17546,0.08274 0.28905,0.08273 0.15822,10e-7 0.38741,-0.05319 0.68762,-0.159563 l 0.14604,1.288329 c -0.39756,0.165474 -0.84786,0.24821 -1.3509,0.24821 -0.30831,0 -0.58619,-0.05023 -0.83366,-0.150699 -0.24746,-0.100466 -0.42899,-0.230481 -0.54461,-0.390045 -0.11562,-0.159562 -0.19574,-0.375269 -0.24036,-0.64712 -0.0365,-0.193051 -0.0548,-0.583095 -0.0548,-1.170134 v -2.736223 h -0.78498 v -1.323788 h 0.78498 V 39.77667 l 1.71599,-0.969202 v 2.216163 z" />
  <path id="path2476" style="color:#000000;display:inline;overflow:visible;visibility:visible;fill:#006666;fill-opacity:1;fill-rule:nonzero;stroke:#676767;stroke-width:0.5231905;stroke-linecap:round;stroke-linejoin:miter;stroke-miterlimit:4;stroke-dasharray:none;stroke-dashoffset:0;stroke-opacity:1;marker:none;marker-start:none;marker-mid:none;marker-end:none" d="m 178.23449,42.78115 a 12.856606,12.856606 0 1 1 -25.71321,0 12.856606,12.856606 0 1 1 25.71321,0 z" />
  <path id="text2478" style="font-style:normal;font-variant:normal;font-weight:bold;font-stretch:normal;font-size:12.28143692px;line-height:125%;font-family:FreeSans;text-align:center;writing-mode:lr-tb;text-anchor:middle;display:inline;fill:#99cc99;fill-opacity:1;stroke:none;stroke-width:1px;stroke-linecap:butt;stroke-linejoin:miter;stroke-opacity:1" d="m 164.76951,42.879307 -1.68557,0.295489 c -0.0568,-0.327003 -0.18561,-0.573244 -0.38641,-0.738722 -0.20081,-0.165469 -0.46146,-0.248205 -0.78194,-0.24821 -0.42596,5e-6 -0.76571,0.142824 -1.01925,0.428459 -0.25355,0.285642 -0.38032,0.763349 -0.38032,1.433118 0,0.744634 0.1288,1.270602 0.3864,1.577909 0.25761,0.30731 0.60344,0.460963 1.03752,0.460962 0.32453,10e-7 0.59024,-0.08963 0.79714,-0.268894 0.20689,-0.179262 0.35294,-0.487555 0.43813,-0.92488 l 1.67949,0.27776 c -0.17445,0.748572 -0.50912,1.313939 -1.00405,1.696104 -0.49492,0.382165 -1.15819,0.573247 -1.98982,0.573247 -0.94522,0 -1.69877,-0.289579 -2.26062,-0.868736 -0.56185,-0.579157 -0.84279,-1.380914 -0.84279,-2.405277 0,-1.036175 0.28195,-1.842857 0.84584,-2.42005 0.56388,-0.577181 1.32655,-0.865775 2.28799,-0.865782 0.78701,7e-6 1.41275,0.164495 1.87726,0.493467 0.46448,0.328982 0.79816,0.830327 1.001,1.504036 z m 7.2291,4.420508 h -1.58821 v -0.921924 c -0.2637,0.358526 -0.57504,0.625451 -0.93406,0.800774 -0.35903,0.175322 -0.72109,0.262984 -1.0862,0.262984 -0.74238,0 -1.37827,-0.290563 -1.90767,-0.871691 -0.52941,-0.581126 -0.79412,-1.391748 -0.79412,-2.431871 0,-1.063754 0.25761,-1.872406 0.77282,-2.42596 0.5152,-0.553542 1.16631,-0.830316 1.95332,-0.830323 0.72209,7e-6 1.34682,0.291555 1.87421,0.874647 v -3.120359 h 1.70991 z m -4.56383,-3.274013 c 0,0.669777 0.0954,1.154377 0.286,1.453804 0.27586,0.433384 0.66125,0.650076 1.15617,0.650074 0.3935,2e-6 0.72819,-0.162517 1.00405,-0.487556 0.27585,-0.325035 0.41377,-0.810621 0.41378,-1.456758 -1e-5,-0.720988 -0.13388,-1.240062 -0.40161,-1.557225 -0.26775,-0.317152 -0.61054,-0.475731 -1.02839,-0.475736 -0.40568,5e-6 -0.74543,0.156614 -1.01925,0.469826 -0.27383,0.313223 -0.41075,0.78108 -0.41075,1.403571 z" />
  <path id="path2072" style="color:#000000;display:inline;overflow:visible;visibility:visible;fill:#006666;fill-opacity:1;fill-rule:nonzero;stroke:#676767;stroke-width:0.5231905;stroke-linecap:round;stroke-linejoin:miter;stroke-miterlimit:4;stroke-dasharray:none;stroke-dashoffset:0;stroke-opacity:1;marker:none;marker-start:none;marker-mid:none;marker-end:none" d="m 236.41679,42.78115 a 12.856606,12.856606 0 1 1 -25.71321,0 12.856606,12.856606 0 1 1 25.71321,0 z" />
  <path id="text3021" style="font-style:normal;font-variant:normal;font-weight:bold;font-stretch:normal;font-size:12.28143883px;line-height:125%;font-family:FreeSans;text-align:center;writing-mode:lr-tb;text-anchor:middle;display:inline;fill:#ffffff;fill-opacity:1;stroke:none;stroke-width:1px;stroke-linecap:butt;stroke-linejoin:miter;stroke-opacity:1" d="m 218.97215,47.299856 v -8.663724 h 1.70992 v 8.663724 z m 9.09115,-4.420509 -1.68557,0.295489 c -0.0568,-0.327003 -0.18561,-0.573243 -0.38641,-0.738721 -0.20082,-0.165469 -0.46146,-0.248206 -0.78194,-0.248211 -0.42596,5e-6 -0.76571,0.142825 -1.01925,0.428459 -0.25355,0.285643 -0.38032,0.763349 -0.38032,1.433119 0,0.744634 0.1288,1.270603 0.38641,1.577909 0.2576,0.307309 0.60342,0.460963 1.0375,0.460962 0.32453,1e-6 0.59025,-0.08963 0.79715,-0.268895 0.20689,-0.179261 0.35293,-0.487553 0.43813,-0.924878 l 1.67949,0.277758 c -0.17445,0.748573 -0.50912,1.313941 -1.00405,1.696105 -0.49492,0.382165 -1.1582,0.573248 -1.98982,0.573248 -0.94522,0 -1.69877,-0.289579 -2.26062,-0.868737 -0.56185,-0.579156 -0.84279,-1.380914 -0.84278,-2.405276 -1e-5,-1.036176 0.28194,-1.842859 0.84582,-2.420051 0.56389,-0.577182 1.32655,-0.865775 2.28801,-0.865782 0.787,7e-6 1.41275,0.164495 1.87725,0.493466 0.46449,0.328983 0.79815,0.830328 1.001,1.504036 z" />
  <text xml:space="preserve" id="text2500" style="font-style:normal;font-variant:normal;font-weight:normal;font-stretch:normal;font-size:11.22074604px;line-height:125%;font-family:'Bitstream Vera Sans';text-align:end;writing-mode:lr-tb;text-anchor:end;display:inline;fill:#333333;fill-opacity:1;stroke:none;stroke-width:1px;stroke-linecap:butt;stroke-linejoin:miter;stroke-opacity:1" transform="scale(1.0147258,0.98548785)" y="16.251966" x="191.25804"><tspan id="tspan2502" style="text-align:center;text-anchor:middle;fill:#333333" y="16.251966" x="191.25804">Lower Risk</tspan></text>
  <path id="path2575" style="font-style:normal;font-weight:normal;font-size:110.84521484px;font-family:'Bitstream Vera Sans';display:inline;fill:#333333;fill-opacity:1;stroke:none;stroke-width:1px;stroke-linecap:butt;stroke-linejoin:miter;stroke-opacity:1" d="m 164.99472,25.562472 c -2.95334,6e-6 -5.27556,0.236381 -6.96667,0.709128 -1.69099,0.472756 -2.88189,1.269241 -3.57267,2.389456 9e-5,-1.541581 0.47049,-2.726029 1.41119,-3.55335 0.94087,-0.827311 2.41163,-1.400265 4.41225,-1.718866 2.00074,-0.318586 4.69212,-0.477883 8.07416,-0.477891 h 15.50531 c 2.0722,8e-6 3.71561,-0.06679 4.93026,-0.200405 1.21472,-0.133597 2.31037,-0.447053 3.28683,-0.940366 1.23856,-0.781059 1.91739,-1.474772 2.03642,-2.081138 0.59548,1.017455 1.71492,1.819077 3.35829,2.404871 1.57201,0.5447 3.91803,0.817046 7.03813,0.817038 h 17.54171 c 5.02553,8e-6 8.34809,0.483037 9.96769,1.449088 1.6434,0.924957 2.46511,2.358626 2.46513,4.301019 -0.88125,-1.171602 -2.11384,-1.980931 -3.6977,-2.427994 -1.58386,-0.447054 -3.85251,-0.670584 -6.80589,-0.67059 h -17.86325 c -3.525,6e-6 -6.22233,-0.23894 -8.09204,-0.716835 -1.86968,-0.477885 -3.17368,-1.395127 -3.91207,-2.751726 -0.69068,1.397709 -2.03043,2.325227 -4.01923,2.782557 -1.98874,0.457342 -4.88855,0.68601 -8.69941,0.686004 z" />
  <g transform="translate(0,-40)" id="white_EW" style="opacity:1">
    <path d="m 61.870074,82.778973 a 12.856606,12.856606 0 1 1 -25.713212,0 12.856606,12.856606 0 1 1 25.713212,0 z" style="color:#000000;display:inline;overflow:visible;visibility:visible;fill:#fcfcfb;fill-opacity:1;fill-rule:nonzero;stroke:#676767;stroke-width:0.5231905;stroke-linecap:round;stroke-linejoin:miter;stroke-miterlimit:4;stroke-dasharray:none;stroke-dashoffset:0;stroke-opacity:1;marker:none;marker-start:none;marker-mid:none;marker-end:none" id="path13406-6" />
    <path d="m 39.429503,87.297654 v -8.663703 h 6.614494 v 1.465618 H 41.23069 v 1.920672 h 4.478627 v 1.45971 H 41.23069 v 2.357993 h 4.98369 v 1.45971 z m 9.590104,0 -2.129782,-8.663703 h 1.843783 l 1.344805,5.951124 1.630805,-5.951124 h 2.141951 l 1.563869,6.051591 1.369146,-6.051591 h 1.813357 l -2.166293,8.663703 h -1.910719 l -1.776846,-6.477094 -1.770762,6.477094 z" style="font-style:normal;font-variant:normal;font-weight:bold;font-stretch:normal;font-size:12.28141117px;line-height:125%;font-family:FreeSans;text-align:center;writing-mode:lr-tb;text-anchor:middle;display:inline;fill:#000000;fill-opacity:1;stroke:none;stroke-width:1px;stroke-linecap:butt;stroke-linejoin:miter;stroke-opacity:1" id="text13438-0" />
  </g>
  <g transform="translate(0,-40)" id="white_VU" style="opacity:1">
    <path d="m 149.14339,82.778973 a 12.856606,12.856606 0 1 1 -25.71321,0 12.856606,12.856606 0 1 1 25.71321,0 z" style="color:#000000;display:inline;overflow:visible;visibility:visible;fill:#fcfcfb;fill-opacity:1;fill-rule:nonzero;stroke:#676767;stroke-width:0.5231905;stroke-linecap:round;stroke-linejoin:miter;stroke-miterlimit:4;stroke-dasharray:none;stroke-dashoffset:0;stroke-opacity:1;marker:none;marker-start:none;marker-mid:none;marker-end:none" id="path13412-6" />
    <path d="m 131.30632,87.297661 -3.18859,-8.66371 h 1.95332 l 2.25757,6.412091 2.18455,-6.412091 h 1.91072 l -3.19467,8.66371 z m 6.03641,-8.66371 h 1.80119 v 4.69235 c 0,0.744633 0.0223,1.227263 0.067,1.447892 0.077,0.354588 0.26064,0.639241 0.5507,0.853961 0.29005,0.214722 0.68659,0.322083 1.18963,0.322082 0.51114,10e-7 0.89653,-0.10145 1.15617,-0.304353 0.25963,-0.2029 0.4158,-0.452095 0.46855,-0.747585 0.0528,-0.295485 0.0791,-0.785995 0.0791,-1.471531 v -4.792816 h 1.80119 v 4.550516 c -10e-6,1.040121 -0.0487,1.774901 -0.14604,2.204342 -0.0974,0.429444 -0.27689,0.791908 -0.53854,1.087396 -0.26166,0.295489 -0.61155,0.530893 -1.04968,0.706216 -0.43813,0.175324 -1.01013,0.262985 -1.71599,0.262985 -0.85192,0 -1.49795,-0.09554 -1.93811,-0.286624 -0.44016,-0.191082 -0.78802,-0.439292 -1.04359,-0.74463 -0.25557,-0.305336 -0.42393,-0.625448 -0.50506,-0.960337 -0.11765,-0.496417 -0.17647,-1.229227 -0.17647,-2.198431 z" style="font-style:normal;font-variant:normal;font-weight:bold;font-stretch:normal;font-size:12.28142166px;line-height:125%;font-family:FreeSans;text-align:center;writing-mode:lr-tb;text-anchor:middle;display:inline;fill:#000000;fill-opacity:1;stroke:none;stroke-width:1px;stroke-linecap:butt;stroke-linejoin:miter;stroke-opacity:1" id="text13426-2" />
  </g>
  <g transform="translate(0,-40)" id="white_EN" style="opacity:1">
    <path d="m 120.0523,82.778923 a 12.856607,12.856607 0 1 1 -25.713208,0 12.856607,12.856607 0 1 1 25.713208,0 z" style="color:#000000;display:inline;overflow:visible;visibility:visible;fill:#fcfcfb;fill-opacity:1;fill-rule:nonzero;stroke:#676767;stroke-width:0.52328289;stroke-linecap:round;stroke-linejoin:miter;stroke-miterlimit:4;stroke-dasharray:none;stroke-dashoffset:0;stroke-opacity:1;marker:none;marker-start:none;marker-mid:none;marker-end:none" id="path13410-6" />
    <path d="m 99.486001,87.297613 v -8.66371 h 6.614499 v 1.46562 h -4.81331 v 1.920673 h 4.47863 v 1.45971 h -4.47863 v 2.357995 h 4.98369 v 1.459712 z m 8.342669,0 v -8.66371 h 1.7525 l 3.65107,5.785655 v -5.785655 h 1.67339 v 8.66371 h -1.80727 l -3.59629,-5.649733 v 5.649733 z" style="font-style:normal;font-variant:normal;font-weight:bold;font-stretch:normal;font-size:12.28141975px;line-height:125%;font-family:FreeSans;text-align:center;writing-mode:lr-tb;text-anchor:middle;display:inline;fill:#000000;fill-opacity:1;stroke:none;stroke-width:1px;stroke-linecap:butt;stroke-linejoin:miter;stroke-opacity:1" id="text13430-1" />
  </g>
  <g transform="translate(0,-40)" id="white_CR" style="opacity:1">
    <path d="m 90.961184,82.778973 a 12.856606,12.856606 0 1 1 -25.713212,0 12.856606,12.856606 0 1 1 25.713212,0 z" style="color:#000000;display:inline;overflow:visible;visibility:visible;fill:#fcfcfb;fill-opacity:1;fill-rule:nonzero;stroke:#676767;stroke-width:0.5231905;stroke-linecap:round;stroke-linejoin:miter;stroke-miterlimit:4;stroke-dasharray:none;stroke-dashoffset:0;stroke-opacity:1;marker:none;marker-start:none;marker-mid:none;marker-end:none" id="path13408-8" />
    <path d="m 75.45461,84.112302 1.74642,0.537789 c -0.267751,0.945563 -0.712977,1.647837 -1.335678,2.106828 -0.622714,0.458991 -1.41276,0.688487 -2.370142,0.688487 -1.184569,0 -2.158182,-0.392999 -2.920844,-1.178997 -0.762666,-0.785996 -1.143998,-1.860586 -1.143997,-3.223772 -10e-7,-1.441976 0.38336,-2.561874 1.150082,-3.359698 0.766719,-0.797808 1.774815,-1.196716 3.024291,-1.196725 1.091253,9e-6 1.977647,0.313226 2.659185,0.939652 0.405665,0.370351 0.709918,0.902228 0.912763,1.595633 l -1.782931,0.413683 C 75.288277,80.986047 75.0682,80.631462 74.733526,80.371426 74.39884,80.111404 73.992154,79.98139 73.513465,79.981382 c -0.66125,8e-6 -1.197752,0.230488 -1.609506,0.691442 -0.411761,0.460967 -0.61764,1.207565 -0.617638,2.239797 -2e-6,1.095278 0.202835,1.875366 0.60851,2.340264 0.405669,0.464903 0.933043,0.697353 1.582123,0.697352 0.478689,10e-7 0.890447,-0.147742 1.235274,-0.443232 0.344816,-0.295486 0.592276,-0.760386 0.742382,-1.394703 z m 3.304204,3.185359 v -8.663703 h 3.791011 c 0.953326,8e-6 1.646012,0.07782 2.07806,0.233436 0.432034,0.155631 0.77787,0.432404 1.037508,0.83032 0.259622,0.39793 0.389437,0.852981 0.389445,1.365153 -8e-6,0.650079 -0.196759,1.186881 -0.590254,1.61041 -0.393509,0.423536 -0.981734,0.69046 -1.764676,0.800772 0.389439,0.220634 0.710935,0.462934 0.964487,0.7269 0.253538,0.263971 0.595317,0.732812 1.025338,1.406522 l 1.089231,1.69019 h -2.154122 l -1.302209,-1.885212 c -0.462473,-0.67371 -0.778897,-1.098227 -0.949274,-1.273553 -0.170388,-0.175319 -0.350912,-0.295484 -0.541574,-0.360495 -0.19067,-0.065 -0.492896,-0.0975 -0.906679,-0.09751 h -0.365105 v 3.616771 z m 1.801187,-4.999654 h 1.332635 c 0.864078,5e-6 1.403622,-0.03546 1.618634,-0.106376 0.215,-0.07092 0.383355,-0.193047 0.505063,-0.366405 0.121695,-0.173348 0.182546,-0.390038 0.182552,-0.650073 -6e-6,-0.291542 -0.08012,-0.526947 -0.240361,-0.706216 -0.160247,-0.179256 -0.386409,-0.292526 -0.678487,-0.339811 -0.146048,-0.01969 -0.584174,-0.02954 -1.31438,-0.02954 h -1.405656 z" style="font-style:normal;font-variant:normal;font-weight:bold;font-stretch:normal;font-size:12.28141117px;line-height:125%;font-family:FreeSans;text-align:center;writing-mode:lr-tb;text-anchor:middle;display:inline;fill:#000000;fill-opacity:1;stroke:none;stroke-width:1px;stroke-linecap:butt;stroke-linejoin:miter;stroke-opacity:1" id="text13442-7" />
  </g>
  <g transform="translate(0,-40)" id="white_EX" style="opacity:1">
    <path d="m 32.778962,82.778973 a 12.856606,12.856606 0 1 1 -25.7132118,0 12.856606,12.856606 0 1 1 25.7132118,0 z" style="color:#000000;display:inline;overflow:visible;visibility:visible;fill:#fcfcfb;fill-opacity:1;fill-rule:nonzero;stroke:#676767;stroke-width:0.5231905;stroke-linecap:round;stroke-linejoin:miter;stroke-miterlimit:4;stroke-dasharray:none;stroke-dashoffset:0;stroke-opacity:1;marker:none;marker-start:none;marker-mid:none;marker-end:none" id="path13404-9" />
    <path d="m 12.066524,87.297654 v -8.663706 h 6.614497 v 1.465618 h -4.813309 v 1.920672 h 4.478629 v 1.459711 h -4.478629 v 2.357995 h 4.983691 v 1.45971 z m 7.41773,0 3.048631,-4.520966 -2.762633,-4.14274 h 2.105443 l 1.789018,2.783495 1.752506,-2.783495 h 2.087187 l -2.774802,4.207748 3.048632,4.455958 h -2.172379 l -1.977655,-2.996248 -1.983741,2.996248 z" style="font-style:normal;font-variant:normal;font-weight:bold;font-stretch:normal;font-size:12.28141594px;line-height:125%;font-family:FreeSans;text-align:center;writing-mode:lr-tb;text-anchor:middle;display:inline;fill:#000000;fill-opacity:1;stroke:none;stroke-width:1px;stroke-linecap:butt;stroke-linejoin:miter;stroke-opacity:1" id="text13434-2" />
  </g>
  <g transform="translate(0,-40)" id="white_nt" style="opacity:1">
    <path d="m 207.32559,82.778963 a 12.856606,12.856606 0 1 1 -25.71321,0 12.856606,12.856606 0 1 1 25.71321,0 z" style="color:#000000;display:inline;overflow:visible;visibility:visible;fill:#fcfcfb;fill-opacity:1;fill-rule:nonzero;stroke:#676767;stroke-width:0.5231905;stroke-linecap:round;stroke-linejoin:miter;stroke-miterlimit:4;stroke-dasharray:none;stroke-dashoffset:0;stroke-opacity:1;marker:none;marker-start:none;marker-mid:none;marker-end:none" id="path13414-0" />
    <path d="m 194.99243,87.297624 h -1.7099 v -3.203095 c -1e-5,-0.677649 -0.0365,-1.115957 -0.10954,-1.314923 -0.0731,-0.198958 -0.19168,-0.353597 -0.35598,-0.463918 -0.1643,-0.11031 -0.36206,-0.165468 -0.5933,-0.165473 -0.29613,5e-6 -0.56185,0.0788 -0.79715,0.236391 -0.23529,0.157598 -0.39654,0.36641 -0.48376,0.626435 -0.0873,0.260034 -0.13083,0.740695 -0.13082,1.441984 v 2.842599 h -1.70992 v -6.276175 h 1.58821 v 0.921924 c 0.56388,-0.709166 1.27382,-1.063752 2.12979,-1.063758 0.37727,6e-6 0.72209,0.066 1.03446,0.197977 0.31236,0.131992 0.54867,0.300419 0.70892,0.505285 0.16023,0.204878 0.27179,0.437329 0.33467,0.697353 0.0629,0.260034 0.0944,0.63235 0.0944,1.116947 z m 4.7038,-6.276175 v 1.323788 h -1.16835 v 2.529381 c 0,0.512182 0.0112,0.810625 0.0335,0.895331 0.0223,0.0847 0.0731,0.15464 0.15212,0.209797 0.0791,0.05516 0.17546,0.08274 0.28905,0.08273 0.15822,10e-7 0.38741,-0.05319 0.68762,-0.159563 l 0.14604,1.288329 c -0.39756,0.165474 -0.84786,0.24821 -1.3509,0.24821 -0.30831,0 -0.58619,-0.05023 -0.83366,-0.150699 -0.24746,-0.100466 -0.42899,-0.230481 -0.54461,-0.390045 -0.11562,-0.159562 -0.19574,-0.375269 -0.24036,-0.64712 -0.0365,-0.193051 -0.0548,-0.583095 -0.0548,-1.170134 v -2.736223 h -0.78498 v -1.323788 h 0.78498 v -1.24696 l 1.71599,-0.969201 v 2.216162 z" style="font-style:normal;font-variant:normal;font-weight:bold;font-stretch:normal;font-size:12.28143501px;line-height:125%;font-family:FreeSans;text-align:center;writing-mode:lr-tb;text-anchor:middle;display:inline;fill:#000000;fill-opacity:1;stroke:none;stroke-width:1px;stroke-linecap:butt;stroke-linejoin:miter;stroke-opacity:1" id="text1899-2" />
  </g>
  <g transform="translate(0,-40)" id="white_cd" style="opacity:1">
    <path d="m 178.23449,82.778963 a 12.856606,12.856606 0 1 1 -25.71321,0 12.856606,12.856606 0 1 1 25.71321,0 z" style="color:#000000;display:inline;overflow:visible;visibility:visible;fill:#fcfcfb;fill-opacity:1;fill-rule:nonzero;stroke:#676767;stroke-width:0.5231905;stroke-linecap:round;stroke-linejoin:miter;stroke-miterlimit:4;stroke-dasharray:none;stroke-dashoffset:0;stroke-opacity:1;marker:none;marker-start:none;marker-mid:none;marker-end:none" id="path2476-3" />
    <path d="m 164.76951,82.87712 -1.68557,0.295489 c -0.0568,-0.327003 -0.18561,-0.573244 -0.38641,-0.738722 -0.20081,-0.165469 -0.46146,-0.248205 -0.78194,-0.24821 -0.42596,5e-6 -0.76571,0.142824 -1.01925,0.428459 -0.25355,0.285642 -0.38032,0.763349 -0.38032,1.433118 0,0.744634 0.1288,1.270602 0.3864,1.577909 0.25761,0.30731 0.60344,0.460963 1.03752,0.460962 0.32453,10e-7 0.59024,-0.08963 0.79714,-0.268894 0.20689,-0.179262 0.35294,-0.487555 0.43813,-0.92488 l 1.67949,0.27776 c -0.17445,0.748572 -0.50912,1.313939 -1.00405,1.696104 -0.49492,0.382165 -1.15819,0.573247 -1.98982,0.573247 -0.94522,0 -1.69877,-0.289579 -2.26062,-0.868736 -0.56185,-0.579157 -0.84279,-1.380914 -0.84279,-2.405277 0,-1.036175 0.28195,-1.842857 0.84584,-2.42005 0.56388,-0.577181 1.32655,-0.865775 2.28799,-0.865782 0.78701,7e-6 1.41275,0.164495 1.87726,0.493467 0.46448,0.328982 0.79816,0.830327 1.001,1.504036 z m 7.2291,4.420508 h -1.58821 v -0.921924 c -0.2637,0.358526 -0.57504,0.625451 -0.93406,0.800774 -0.35903,0.175322 -0.72109,0.262984 -1.0862,0.262984 -0.74238,0 -1.37827,-0.290563 -1.90767,-0.871691 -0.52941,-0.581126 -0.79412,-1.391748 -0.79412,-2.431871 0,-1.063754 0.25761,-1.872406 0.77282,-2.42596 0.5152,-0.553542 1.16631,-0.830316 1.95332,-0.830323 0.72209,7e-6 1.34682,0.291555 1.87421,0.874647 v -3.120358 h 1.70991 z m -4.56383,-3.274013 c 0,0.669777 0.0954,1.154377 0.286,1.453804 0.27586,0.433384 0.66125,0.650076 1.15617,0.650074 0.3935,2e-6 0.72819,-0.162517 1.00405,-0.487556 0.27585,-0.325035 0.41377,-0.810621 0.41378,-1.456758 -1e-5,-0.720988 -0.13388,-1.240062 -0.40161,-1.557225 -0.26775,-0.317152 -0.61054,-0.475731 -1.02839,-0.475736 -0.40568,5e-6 -0.74543,0.156614 -1.01925,0.469826 -0.27383,0.313223 -0.41075,0.78108 -0.41075,1.403571 z" style="font-style:normal;font-variant:normal;font-weight:bold;font-stretch:normal;font-size:12.28143692px;line-height:125%;font-family:FreeSans;text-align:center;writing-mode:lr-tb;text-anchor:middle;display:inline;fill:#000000;fill-opacity:1;stroke:none;stroke-width:1px;stroke-linecap:butt;stroke-linejoin:miter;stroke-opacity:1" id="text2478-7" />
  </g>
  <g transform="translate(0,-40)" id="white_lc" style="opacity:1">
    <path d="m 236.41679,82.778963 a 12.856606,12.856606 0 1 1 -25.71321,0 12.856606,12.856606 0 1 1 25.71321,0 z" style="color:#000000;display:inline;overflow:visible;visibility:visible;fill:#fcfcfb;fill-opacity:1;fill-rule:nonzero;stroke:#676767;stroke-width:0.5231905;stroke-linecap:round;stroke-linejoin:miter;stroke-miterlimit:4;stroke-dasharray:none;stroke-dashoffset:0;stroke-opacity:1;marker:none;marker-start:none;marker-mid:none;marker-end:none" id="path2072-5" />
    <path d="m 218.97215,87.297669 v -8.663723 h 1.70992 v 8.663723 z m 9.09115,-4.420509 -1.68557,0.295489 c -0.0568,-0.327003 -0.18561,-0.573243 -0.38641,-0.738721 -0.20082,-0.165469 -0.46146,-0.248206 -0.78194,-0.248211 -0.42596,5e-6 -0.76571,0.142825 -1.01925,0.428459 -0.25355,0.285643 -0.38032,0.763349 -0.38032,1.433119 0,0.744634 0.1288,1.270603 0.38641,1.577909 0.2576,0.307309 0.60342,0.460963 1.0375,0.460962 0.32453,10e-7 0.59025,-0.08963 0.79715,-0.268895 0.20689,-0.179261 0.35293,-0.487553 0.43813,-0.924878 l 1.67949,0.277758 c -0.17445,0.748573 -0.50912,1.313941 -1.00405,1.696105 -0.49492,0.382165 -1.1582,0.573248 -1.98982,0.573248 -0.94522,0 -1.69877,-0.289579 -2.26062,-0.868737 -0.56185,-0.579156 -0.84279,-1.380914 -0.84278,-2.405276 -1e-5,-1.036176 0.28194,-1.842859 0.84582,-2.420051 0.56389,-0.577182 1.32655,-0.865775 2.28801,-0.865782 0.787,7e-6 1.41275,0.164495 1.87725,0.493466 0.46449,0.328983 0.79815,0.830328 1.001,1.504036 z" style="font-style:normal;font-variant:normal;font-weight:bold;font-stretch:normal;font-size:12.28143883px;line-height:125%;font-family:FreeSans;text-align:center;writing-mode:lr-tb;text-anchor:middle;display:inline;fill:#000000;fill-opacity:1;stroke:none;stroke-width:1px;stroke-linecap:butt;stroke-linejoin:miter;stroke-opacity:1" id="text3021-9" />
  </g>
</svg>
