<?xml version="1.0" encoding="UTF-8" standalone="no"?>
<svg xmlns:dc="http://purl.org/dc/elements/1.1/" xmlns:cc="http://creativecommons.org/ns#" xmlns:rdf="http://www.w3.org/1999/02/22-rdf-syntax-ns#" xmlns:svg="http://www.w3.org/2000/svg" xmlns="http://www.w3.org/2000/svg" id="svg226" version="1.1" viewBox="0 0 256 68.27">
  <metadata id="metadata232">
    <rdf:RDF>
      <cc:Work rdf:about="">
        <dc:format>image/svg+xml</dc:format>
        <dc:type rdf:resource="http://purl.org/dc/dcmitype/StillImage" />
        <dc:title></dc:title>
      </cc:Work>
    </rdf:RDF>
  </metadata>
  <defs id="defs230" />
  <g id="g163" transform="translate(0 49.5)" stroke-width=".6" stroke="#666">
    <circle fill="#066" id="circle149" r="13.3" cx="228" />
    <circle fill="#066" id="circle151" r="13.3" cx="194" />
    <circle fill="#c90" id="circle153" r="13.3" cx="161" />
    <circle fill="#c63" id="circle155" r="13.3" cx="126" />
    <circle fill="#c33" id="circle157" r="13.3" cx="92" />
    <circle id="circle159" r="13.3" cx="58" />
    <circle id="circle161" r="13.3" cx="24.4" />
  </g>
  <path id="path165" fill="#fff" d="m48.4 54.1v-8.93h6.82v1.51h-4.96v1.98h4.62v1.5h-4.62v2.43h5.14v1.5zm9.89 0-2.2-8.93h1.9l1.39 6.14 1.68-6.14h2.21l1.61 6.24 1.41-6.24h1.87l-2.23 8.93h-1.97l-1.83-6.68-1.83 6.68z" />
  <path id="path167" fill="#ffc" d="m155 54.1-3.29-8.93h2.01l2.33 6.61 2.25-6.61h1.97l-3.29 8.93zm6.22-8.93h1.86v4.84c0 .768.0231 1.27.0691 1.49.0795.366.269.659.568.881s.708.332 1.23.332c.527 1e-6.924-.105 1.19-.314.268-.209.429-.466.483-.771.0543-.305.0816-.811.0816-1.52v-4.94h1.86v4.69c0 1.07-.0502 1.83-.151 2.27-.1.443-.286.817-.555 1.12-.27.305-.631.548-1.08.728s-1.04.271-1.77.271c-.878 0-1.54-.0985-2-.296-.454-.197-.813-.453-1.08-.768-.264-.315-.437-.645-.521-.99-.121-.512-.182-1.27-.182-2.27z" />
  <path id="path169" fill="#fc9" d="m118 54.1v-8.93h6.82v1.51h-4.96v1.98h4.62v1.5h-4.62v2.43h5.14v1.5zm8.6 0v-8.93h1.81l3.76 5.97v-5.97h1.73v8.93h-1.86l-3.71-5.83v5.83z" />
  <path id="path171" fill="#fcc" d="m89.3 50.8 1.8.555c-.276.975-.735 1.7-1.38 2.17-.642.473-1.46.71-2.44.71-1.22 0-2.23-.405-3.01-1.22-.786-.811-1.18-1.92-1.18-3.32 0-1.49.395-2.64 1.19-3.46.791-.823 1.83-1.23 3.12-1.23 1.12 1e-5 2.04.323 2.74.969.418.382.732.93.941 1.64l-1.84.427c-.109-.463-.336-.829-.681-1.1-.345-.268-.764-.402-1.26-.402-.682 9e-6-1.24.238-1.66.713-.425.475-.637 1.24-.637 2.31-2e-6 1.13.209 1.93.628 2.41.418.479.962.719 1.63.719.494 2e-6.918-.152 1.27-.457.356-.305.611-.784.766-1.44zm3.41 3.28v-8.93h3.91c.983 8e-6 1.7.0802 2.14.241.446.16.802.446 1.07.856s.402.88.402 1.41c-1e-5.67-.203 1.22-.609 1.66-.406.437-1.01.712-1.82.826.402.228.733.477.995.75s.614.756 1.06 1.45l1.12 1.74h-2.22l-1.34-1.94c-.477-.695-.803-1.13-.979-1.31-.176-.181-.362-.305-.558-.372-.197-.067-.508-.101-.935-.101h-.376v3.73zm1.86-5.16h1.37c.891 4e-6 1.45-.0366 1.67-.11.222-.0731.395-.199.521-.378s.188-.402.188-.67c-7e-6-.301-.0826-.543-.248-.728-.165-.185-.398-.302-.7-.35-.151-.0203-.602-.0305-1.36-.0305h-1.45z" />
  <path id="path173" fill="#c33" d="m16.3 54.1v-8.93h6.82v1.51h-4.96v1.98h4.62v1.5h-4.62v2.43h5.14v1.5zm7.65 0 3.14-4.66-2.85-4.27h2.17l1.84 2.87 1.81-2.87h2.15l-2.86 4.34 3.14 4.6h-2.24l-2.04-3.09-2.05 3.09z" />
  <g id="g180" fill="#333">
    <path d="m90.8 31.6c-3.51 6e-6-6.27.244-8.28.731s-3.42 1.31-4.25 2.46c9e-5-1.59.559-2.81 1.68-3.66 1.12-.853 2.87-1.44 5.24-1.77 2.38-.328 5.58-.493 9.6-.493h18.4c2.46 8e-6 4.42-.0689 5.86-.207 1.44-.138 2.75-.461 3.91-.97 1.47-.806 2.28-1.52 2.42-2.15.708 1.05 2.04 1.88 3.99 2.48 1.87.562 4.66.843 8.36.843h20.8c5.97 8e-6 9.92.498 11.8 1.49 1.95.954 2.93 2.43 2.93 4.44-1.05-1.21-2.51-2.04-4.4-2.5-1.88-.461-4.58-.692-8.09-.692h-21.2c-4.19 6e-6-7.4-.246-9.62-.739s-3.77-1.44-4.65-2.84c-.821 1.44-2.41 2.4-4.78 2.87-2.36.472-5.81.707-10.3.707z" id="JasmineUPC_bracket" />
    <path id="path176" stroke="#333" d="m227 25.1v7.66" />
    <path id="path178" stroke="#333" d="m24.4 25.1v7.66" />
  </g>
  <path id="path182" fill="#9c9" d="m186 54.1v-8.93h1.81l3.76 5.97v-5.97h1.73v8.93h-1.86l-3.71-5.83v5.83zm11.3 0v-7.42h-2.73v-1.51h7.31v1.51h-2.72v7.42z" />
  <path id="path184" fill="#fff" d="m220 54.1v-8.86h1.86v7.36h4.62v1.5zm13.7-3.28 1.8.555c-.276.975-.735 1.7-1.38 2.17-.642.473-1.46.71-2.44.71-1.22 0-2.23-.405-3.01-1.22-.786-.811-1.18-1.92-1.18-3.32 0-1.49.395-2.64 1.19-3.46.791-.823 1.83-1.23 3.12-1.23 1.12 8e-6 2.04.323 2.74.969.418.382.732.93.941 1.64l-1.84.427c-.109-.463-.336-.829-.681-1.1-.345-.268-.764-.402-1.26-.402-.682 8e-6-1.24.238-1.66.713-.425.475-.637 1.24-.637 2.31 0 1.13.209 1.93.628 2.41.418.479.962.719 1.63.719.494 2e-6.918-.152 1.27-.457.356-.305.611-.784.766-1.44z" />
  <switch id="switch224" text-anchor="middle" font-size="11" font-family="sans-serif" fill="#333">
    <g id="g202" systemLanguage="de">
      <text id="text188" y="22.199017" x="44.691872">
        <tspan id="tspan186" y="22.199017" x="44.691872">ausgestorben</tspan>
      </text>
      <text id="text192" y="22.199005" x="124.34117">
        <tspan id="tspan190" y="22.199005" x="124.34117">bedroht</tspan>
      </text>
      <text id="text196" y="11.375405" x="223.56311">
        <tspan id="tspan194" y="11.375405" x="223.56311">nicht</tspan>
      </text>
      <text id="text200" y="22.094397" x="224.06027">
        <tspan id="tspan198" y="22.094397" x="224.06027">bedroht</tspan>
      </text>
    </g>
    <g id="g222" systemLanguage="en">
      <text id="text206" y="22.199017" x="23.668137">
        <tspan id="tspan204" y="22.199017" x="23.668137">Extinct</tspan>
      </text>
      <text id="text210" y="22.199005" x="124.34117">
        <tspan id="tspan208" y="22.199005" x="124.34117">Threatened</tspan>
      </text>
      <g id="g220" transform="translate(5.28 6.69)">
        <text id="text214" y="6.8491535" x="218.28612">
          <tspan id="tspan212" y="6.8491535" x="218.28612">Least</tspan>
        </text>
        <text id="text218" y="15.403396" x="218.78328">
          <tspan id="tspan216" y="15.403396" x="218.78328">Concern</tspan>
        </text>
      </g>
    </g>
  </switch>
  <g transform="translate(0,-40)" id="white_EW" style="opacity:1">
    <circle style="fill:#fcfcfc;fill-opacity:1;stroke:#666666;stroke-width:0.60000002" id="circle159-6" r="13.3" cx="58" cy="89.5" />
    <path style="fill:#030201;fill-opacity:1" d="m 48.4,94.1 v -8.93 h 6.82 v 1.51 h -4.96 v 1.98 h 4.62 v 1.5 h -4.62 v 2.43 h 5.14 v 1.5 z m 9.89,0 -2.2,-8.93 h 1.9 l 1.39,6.14 1.68,-6.14 h 2.21 l 1.61,6.24 1.41,-6.24 h 1.87 L 65.93,94.1 H 63.96 L 62.13,87.42 60.3,94.1 Z" id="path165-9" />
  </g>
  <g transform="translate(0,-40)" id="white_VU" style="opacity:1">
    <circle id="circle153-5" r="13.3" cx="161" cy="89.5" style="fill:#fcfcfc;fill-opacity:1;stroke:#666666;stroke-width:0.60000002" />
    <path style="fill:#030201;fill-opacity:1" d="m 155,94.1 -3.29,-8.93 h 2.01 l 2.33,6.61 2.25,-6.61 h 1.97 l -3.29,8.93 z m 6.22,-8.93 h 1.86 v 4.84 c 0,0.768 0.0231,1.27 0.0691,1.49 0.0795,0.366 0.269,0.659 0.568,0.881 0.299,0.222 0.708,0.332 1.23,0.332 0.527,1e-6 0.924,-0.105 1.19,-0.314 0.268,-0.209 0.429,-0.466 0.483,-0.771 0.0543,-0.305 0.0816,-0.811 0.0816,-1.52 v -4.94 h 1.86 v 4.69 c 0,1.07 -0.0502,1.83 -0.151,2.27 -0.1,0.443 -0.286,0.817 -0.555,1.12 -0.27,0.305 -0.631,0.548 -1.08,0.728 -0.449,0.18 -1.04,0.271 -1.77,0.271 -0.878,0 -1.54,-0.0985 -2,-0.296 -0.454,-0.197 -0.813,-0.453 -1.08,-0.768 -0.264,-0.315 -0.437,-0.645 -0.521,-0.99 -0.121,-0.512 -0.182,-1.27 -0.182,-2.27 z" id="path167-1" />
  </g>
  <g transform="translate(0,-40)" id="white_EN" style="opacity:1" >
    <circle id="circle155-3" r="13.3" cx="126" cy="89.5" style="fill:#fcfcfc;fill-opacity:1;stroke:#666666;stroke-width:0.60000002" />
    <path style="fill:#030201;fill-opacity:1" d="m 118,94.1 v -8.93 h 6.82 v 1.51 h -4.96 v 1.98 h 4.62 v 1.5 h -4.62 v 2.43 H 125 v 1.5 z m 8.6,0 v -8.93 h 1.81 l 3.76,5.97 v -5.97 h 1.73 v 8.93 h -1.86 l -3.71,-5.83 v 5.83 z" id="path169-2" />
  </g>
  <g transform="translate(0,-40)" id="white_CR" style="opacity:1">
    <circle id="circle157-5" r="13.3" cx="92" cy="89.5" style="fill:#fcfcfc;fill-opacity:1;stroke:#666666;stroke-width:0.60000002" />
    <path style="fill:#030201;fill-opacity:1" d="m 89.3,90.8 1.8,0.555 c -0.276,0.975 -0.735,1.7 -1.38,2.17 -0.642,0.473 -1.46,0.71 -2.44,0.71 -1.22,0 -2.23,-0.405 -3.01,-1.22 -0.786,-0.811 -1.18,-1.92 -1.18,-3.32 0,-1.49 0.395,-2.64 1.19,-3.46 0.791,-0.823 1.83,-1.23 3.12,-1.23 1.12,1e-5 2.04,0.323 2.74,0.969 0.418,0.382 0.732,0.93 0.941,1.64 l -1.84,0.427 c -0.109,-0.463 -0.336,-0.829 -0.681,-1.1 -0.345,-0.268 -0.764,-0.402 -1.26,-0.402 -0.682,9e-6 -1.24,0.238 -1.66,0.713 -0.425,0.475 -0.637,1.24 -0.637,2.31 -2e-6,1.13 0.209,1.93 0.628,2.41 0.418,0.479 0.962,0.719 1.63,0.719 0.494,2e-6 0.918,-0.152 1.27,-0.457 0.356,-0.305 0.611,-0.784 0.766,-1.44 z m 3.41,3.28 v -8.93 h 3.91 c 0.983,8e-6 1.7,0.0802 2.14,0.241 0.446,0.16 0.802,0.446 1.07,0.856 0.268,0.41 0.402,0.88 0.402,1.41 -1e-5,0.67 -0.203,1.22 -0.609,1.66 -0.406,0.437 -1.01,0.712 -1.82,0.826 0.402,0.228 0.733,0.477 0.995,0.75 0.262,0.273 0.614,0.756 1.06,1.45 l 1.12,1.74 h -2.22 l -1.34,-1.94 C 96.941,91.448 96.615,91.013 96.439,90.833 96.263,90.652 96.077,90.528 95.881,90.461 95.684,90.394 95.373,90.36 94.946,90.36 H 94.57 v 3.73 z m 1.86,-5.16 h 1.37 c 0.891,4e-6 1.45,-0.0366 1.67,-0.11 0.222,-0.0731 0.395,-0.199 0.521,-0.378 0.126,-0.179 0.188,-0.402 0.188,-0.67 -7e-6,-0.301 -0.0826,-0.543 -0.248,-0.728 -0.165,-0.185 -0.398,-0.302 -0.7,-0.35 -0.151,-0.0203 -0.602,-0.0305 -1.36,-0.0305 h -1.45 z" id="path171-7" />
  </g>
  <g transform="translate(0,-40)" id="white_EX" style="opacity:1">
    <circle style="fill:#fcfcfc;fill-opacity:1;stroke:#666666;stroke-width:0.60000002" id="circle161-2" r="13.3" cx="24.4" cy="89.5" />
    <path style="fill:#030201;fill-opacity:1" d="M 16.299999,94.1 V 85.17 H 23.12 v 1.51 h -4.960001 v 1.98 H 22.78 v 1.5 h -4.620001 v 2.43 H 23.3 v 1.5 z m 7.650001,0 3.14,-4.66 -2.85,-4.27 h 2.17 l 1.84,2.87 1.81,-2.87 h 2.15 l -2.86,4.34 3.14,4.6 h -2.24 l -2.04,-3.09 -2.05,3.09 z" id="path173-0" />
  </g>
  <g transform="translate(0,-40)" id="white_NT" style="opacity:1">
    <circle id="circle151-7" r="13.3" cx="194" cy="89.5" style="fill:#fcfcfc;fill-opacity:1;stroke:#666666;stroke-width:0.60000002" />
    <path style="fill:#030201;fill-opacity:1" d="m 186,94.1 v -8.93 h 1.81 l 3.76,5.97 v -5.97 h 1.73 v 8.93 h -1.86 l -3.71,-5.83 v 5.83 z m 11.3,0 v -7.42 h -2.73 v -1.51 h 7.31 v 1.51 h -2.72 v 7.42 z" id="path182-9" />
  </g>
  <g transform="translate(0,-40)" id="white_LC" style="opacity:1">
    <circle id="circle149-6" r="13.3" cx="228" cy="89.5" style="fill:#fcfcfc;fill-opacity:1;stroke:#666666;stroke-width:0.60000002" />
    <path style="fill:#030201;fill-opacity:1" d="m 220,94.1 v -8.86 h 1.86 v 7.36 h 4.62 v 1.5 z m 13.7,-3.28 1.8,0.555 c -0.276,0.975 -0.735,1.7 -1.38,2.17 -0.642,0.473 -1.46,0.71 -2.44,0.71 -1.22,0 -2.23,-0.405 -3.01,-1.22 -0.786,-0.811 -1.18,-1.92 -1.18,-3.32 0,-1.49 0.395,-2.64 1.19,-3.46 0.791,-0.823 1.83,-1.23 3.12,-1.23 1.12,8e-6 2.04,0.323 2.74,0.969 0.418,0.382 0.732,0.93 0.941,1.64 l -1.84,0.427 c -0.109,-0.463 -0.336,-0.829 -0.681,-1.1 -0.345,-0.268 -0.764,-0.402 -1.26,-0.402 -0.682,8e-6 -1.24,0.238 -1.66,0.713 -0.425,0.475 -0.637,1.24 -0.637,2.31 0,1.13 0.209,1.93 0.628,2.41 0.418,0.479 0.962,0.719 1.63,0.719 0.494,2e-6 0.918,-0.152 1.27,-0.457 0.356,-0.305 0.611,-0.784 0.766,-1.44 z" id="path184-3" />
  </g>
</svg>
