<?xml version="1.0" encoding="UTF-8" standalone="no"?>
<!-- Created with Inkscape (http://www.inkscape.org/) -->
<svg
   xmlns:svg="http://www.w3.org/2000/svg"
   xmlns="http://www.w3.org/2000/svg"
   version="1.0"
   width="240"
   height="64"
   id="svg6218">
  <defs
     id="defs6220" />
  <path
     d="M 162.14911,46.677537 C 162.14911,53.542265 156.58415,59.107227 149.71942,59.107227 C 142.85469,59.107227 137.28973,53.542265 137.28973,46.677537 C 137.28973,39.81281 142.85469,34.247847 149.71942,34.247847 C 156.58415,34.247847 162.14911,39.81281 162.14911,46.677537 L 162.14911,46.677537 z "
     style="color:black;fill:#c90;fill-opacity:1;fill-rule:nonzero;stroke:#676767;stroke-width:0.50581741;stroke-linecap:round;stroke-linejoin:miter;marker:none;marker-start:none;marker-mid:none;marker-end:none;stroke-miterlimit:4;stroke-dasharray:none;stroke-dashoffset:0;stroke-opacity:1;visibility:visible;display:inline;overflow:visible"
     id="path13412" />
  <path
     d="M 146.54553,47.966583 L 146.54553,46.555344 L 150.2989,46.555344 L 150.2989,49.892038 C 149.93415,50.23485 149.40565,50.536714 148.71342,50.79763 C 148.02117,51.058548 147.32012,51.189006 146.61024,51.189007 C 145.70817,51.189006 144.92181,51.005221 144.25114,50.637652 C 143.58048,50.270083 143.0765,49.74444 142.7392,49.060722 C 142.40191,48.377007 142.23327,47.633297 142.23327,46.829593 C 142.23327,45.957334 142.42152,45.182201 142.79803,44.504192 C 143.17455,43.826195 143.72559,43.306265 144.45117,42.944401 C 145.00417,42.666351 145.69248,42.527322 146.51611,42.527315 C 147.58681,42.527322 148.42319,42.745388 149.02523,43.181512 C 149.62724,43.617652 150.01454,44.220426 150.18712,44.98984 L 148.45751,45.304084 C 148.33592,44.892716 148.10747,44.567999 147.77214,44.329929 C 147.43679,44.091872 147.01812,43.972841 146.51611,43.972834 C 145.75523,43.972841 145.15026,44.207095 144.70119,44.675597 C 144.25212,45.144111 144.02759,45.839255 144.02759,46.76103 C 144.02759,47.755185 144.25506,48.500799 144.71002,48.997873 C 145.16497,49.49495 145.76112,49.743488 146.49846,49.743486 C 146.8632,49.743488 147.22893,49.673974 147.59565,49.534943 C 147.96235,49.395916 148.27709,49.227368 148.53987,49.029297 L 148.53987,47.966583 L 146.54553,47.966583 z M 151.4755,48.82361 L 153.07569,48.635065 C 153.12667,49.031203 153.26394,49.33402 153.4875,49.543513 C 153.71105,49.75301 153.98168,49.857759 154.29936,49.857757 C 154.64057,49.857759 154.92786,49.732061 155.16122,49.480665 C 155.39458,49.229272 155.51125,48.890271 155.51126,48.463659 C 155.51125,48.059906 155.39948,47.73995 155.17593,47.503788 C 154.95237,47.267633 154.67979,47.149554 154.35819,47.14955 C 154.1464,47.149554 153.89342,47.189548 153.59928,47.269534 L 153.78165,45.961138 C 154.22876,45.97257 154.56997,45.878297 154.8053,45.678319 C 155.04061,45.478351 155.15827,45.212673 155.15828,44.881284 C 155.15827,44.599423 155.07199,44.374692 154.89942,44.207089 C 154.72685,44.039499 154.49742,43.955701 154.21111,43.955694 C 153.92873,43.955701 153.68752,44.050925 153.4875,44.241369 C 153.28747,44.431826 153.16589,44.709884 153.12275,45.075543 L 151.59905,44.824148 C 151.70494,44.317556 151.86476,43.91285 152.07852,43.610026 C 152.29226,43.307217 152.59033,43.069154 152.97273,42.895836 C 153.35513,42.722535 153.78361,42.63588 154.25818,42.635871 C 155.07003,42.63588 155.72109,42.887274 156.21134,43.390055 C 156.61531,43.801436 156.81729,44.266135 156.8173,44.784154 C 156.81729,45.519298 156.40351,46.105886 155.57597,46.543917 C 156.07014,46.646765 156.46529,46.877209 156.76141,47.235253 C 157.05751,47.593303 157.20557,48.025625 157.20557,48.532221 C 157.20557,49.267362 156.92907,49.893944 156.37606,50.411969 C 155.82306,50.929994 155.13474,51.189006 154.31113,51.189007 C 153.53064,51.189006 152.88351,50.970941 152.36972,50.534809 C 151.85594,50.098678 151.55786,49.528279 151.4755,48.82361 L 151.4755,48.82361 z "
     style="font-size:11.87359333px;font-style:normal;font-variant:normal;font-weight:bold;font-stretch:normal;text-align:center;line-height:125%;writing-mode:lr-tb;text-anchor:middle;fill:#ffc;fill-opacity:1;stroke:none;stroke-width:1px;stroke-linecap:butt;stroke-linejoin:miter;stroke-opacity:1;display:inline;font-family:FreeSans"
     id="text13426" />
  <path
     d="M 130.44861,46.677537 C 130.44861,53.542265 124.88365,59.107227 118.01892,59.107227 C 111.15419,59.107227 105.58923,53.542265 105.58923,46.677537 C 105.58923,39.81281 111.15419,34.247847 118.01892,34.247847 C 124.88365,34.247847 130.44861,39.81281 130.44861,46.677537 L 130.44861,46.677537 z "
     style="color:black;fill:#c63;fill-opacity:1;fill-rule:nonzero;stroke:#676767;stroke-width:0.50590676;stroke-linecap:round;stroke-linejoin:miter;marker:none;marker-start:none;marker-mid:none;marker-end:none;stroke-miterlimit:4;stroke-dasharray:none;stroke-dashoffset:0;stroke-opacity:1;visibility:visible;display:inline;overflow:visible"
     id="path13410" />
  <path
     d="M 114.88914,47.966584 L 114.88914,46.555345 L 118.64252,46.555345 L 118.64252,49.892038 C 118.27776,50.23485 117.74927,50.536714 117.05704,50.79763 C 116.36479,51.058548 115.66374,51.189006 114.95386,51.189006 C 114.05179,51.189006 113.26543,51.005221 112.59476,50.637652 C 111.9241,50.270084 111.42012,49.74444 111.08282,49.060722 C 110.74553,48.377007 110.57688,47.633298 110.57689,46.829593 C 110.57688,45.957335 110.76514,45.182202 111.14166,44.504193 C 111.51817,43.826196 112.06921,43.306266 112.79479,42.944403 C 113.34779,42.666353 114.0361,42.527324 114.85973,42.527316 C 115.93043,42.527324 116.76681,42.745389 117.36884,43.181513 C 117.97086,43.617653 118.35816,44.220427 118.53074,44.989841 L 116.80113,45.304085 C 116.67954,44.892717 116.45108,44.568 116.11575,44.32993 C 115.78041,44.091873 115.36174,43.972842 114.85973,43.972835 C 114.09885,43.972842 113.49388,44.207097 113.04481,44.675598 C 112.59574,45.144112 112.37121,45.839256 112.37121,46.761031 C 112.37121,47.755186 112.59868,48.5008 113.05364,48.997873 C 113.50859,49.49495 114.10474,49.743488 114.84208,49.743487 C 115.20682,49.743488 115.57255,49.673974 115.93927,49.534943 C 116.30597,49.395917 116.62071,49.227368 116.88349,49.029297 L 116.88349,47.966584 L 114.88914,47.966584 z M 125.46095,49.554941 L 125.46095,51.046168 L 119.66617,51.046168 C 119.72892,50.482436 119.91717,49.948222 120.23093,49.443527 C 120.54469,48.938835 121.16437,48.269402 122.08997,47.435226 C 122.83515,46.761035 123.29207,46.303955 123.46071,46.063983 C 123.68819,45.732603 123.80192,45.405029 123.80193,45.081257 C 123.80192,44.723216 123.7029,44.448016 123.50484,44.255655 C 123.30677,44.063306 123.03321,43.967128 122.68415,43.967121 C 122.33901,43.967128 122.06447,44.068068 121.86053,44.269938 C 121.65658,44.471822 121.53892,44.807014 121.50755,45.275517 L 119.8603,45.115538 C 119.95836,44.231855 120.26623,43.597655 120.78394,43.212937 C 121.30164,42.828235 121.94877,42.635881 122.72534,42.635872 C 123.57641,42.635881 124.24512,42.858708 124.73145,43.304354 C 125.21777,43.750015 125.46094,44.304226 125.46095,44.966987 C 125.46094,45.344085 125.39132,45.703084 125.2521,46.043985 C 125.11286,46.384896 124.89225,46.741991 124.59026,47.11527 C 124.39023,47.362859 124.02941,47.719001 123.50778,48.183697 C 122.98615,48.648398 122.65572,48.956928 122.51649,49.109286 C 122.37726,49.261649 122.26449,49.4102 122.17822,49.554941 L 125.46095,49.554941 z "
     style="font-size:11.87359142px;font-style:normal;font-variant:normal;font-weight:bold;font-stretch:normal;text-align:center;line-height:125%;writing-mode:lr-tb;text-anchor:middle;fill:#fc9;fill-opacity:1;stroke:none;stroke-width:1px;stroke-linecap:butt;stroke-linejoin:miter;stroke-opacity:1;display:inline;font-family:FreeSans"
     id="text13430" />
  <path
     d="M 98.7481,46.677537 C 98.7481,53.542265 93.183138,59.107227 86.31841,59.107227 C 79.453682,59.107227 73.88872,53.542265 73.88872,46.677537 C 73.88872,39.81281 79.453682,34.247847 86.31841,34.247847 C 93.183138,34.247847 98.7481,39.81281 98.7481,46.677537 L 98.7481,46.677537 z "
     style="color:black;fill:#c33;fill-opacity:1;fill-rule:nonzero;stroke:#676767;stroke-width:0.50581741;stroke-linecap:round;stroke-linejoin:miter;marker:none;marker-start:none;marker-mid:none;marker-end:none;stroke-miterlimit:4;stroke-dasharray:none;stroke-dashoffset:0;stroke-opacity:1;visibility:visible;display:inline;overflow:visible"
     id="path13408" />
  <path
     d="M 83.865188,47.966585 L 83.865188,46.555348 L 87.618558,46.555348 L 87.618558,49.892039 C 87.253803,50.234851 86.725311,50.536715 86.033083,50.79763 C 85.34084,51.058548 84.639781,51.189006 83.929901,51.189006 C 83.027834,51.189006 82.24147,51.005221 81.570808,50.637652 C 80.900143,50.270084 80.396164,49.744441 80.058872,49.060723 C 79.721578,48.377009 79.55293,47.6333 79.552931,46.829596 C 79.55293,45.957338 79.741187,45.182205 80.117702,44.504197 C 80.494214,43.826201 81.045256,43.306271 81.770831,42.944408 C 82.323833,42.666358 83.012146,42.527329 83.835773,42.527321 C 84.906478,42.527329 85.742847,42.745395 86.344883,43.181518 C 86.946905,43.617657 87.334203,44.220432 87.506781,44.989845 L 85.777171,45.304089 C 85.655582,44.892721 85.427125,44.568004 85.091799,44.329935 C 84.756461,44.091878 84.337786,43.972847 83.835773,43.97284 C 83.074898,43.972847 82.469928,44.207101 82.02086,44.675602 C 81.571787,45.144115 81.347251,45.839259 81.347254,46.761034 C 81.347251,47.755188 81.574728,48.500801 82.029685,48.997874 C 82.484635,49.494951 83.080781,49.743489 83.818124,49.743487 C 84.182866,49.743489 84.548594,49.673975 84.915308,49.534944 C 85.28201,49.395918 85.596752,49.227369 85.859534,49.029298 L 85.859534,47.966585 L 83.865188,47.966585 z M 93.083889,51.046168 L 91.430758,51.046168 L 91.430758,44.995559 C 90.826766,45.544061 90.11492,45.94972 89.29522,46.212537 L 89.29522,44.755591 C 89.72664,44.618473 90.195321,44.358509 90.701263,43.975696 C 91.207201,43.592898 91.554299,43.146293 91.742559,42.635878 L 93.083889,42.635878 L 93.083889,51.046168 z "
     style="font-size:11.87358379px;font-style:normal;font-variant:normal;font-weight:bold;font-stretch:normal;text-align:center;line-height:125%;writing-mode:lr-tb;text-anchor:middle;fill:#fcc;fill-opacity:1;stroke:none;stroke-width:1px;stroke-linecap:butt;stroke-linejoin:miter;stroke-opacity:1;display:inline;font-family:FreeSans"
     id="text13442" />
  <path
     d="M 35.34707,46.677537 C 35.34707,53.542265 29.782108,59.107227 22.91738,59.107227 C 16.052652,59.107227 10.48769,53.542265 10.48769,46.677537 C 10.48769,39.81281 16.052652,34.247847 22.91738,34.247847 C 29.782108,34.247847 35.34707,39.81281 35.34707,46.677537 L 35.34707,46.677537 z "
     style="color:black;fill:black;fill-opacity:1;fill-rule:nonzero;stroke:#676767;stroke-width:0.50581741;stroke-linecap:round;stroke-linejoin:miter;marker:none;marker-start:none;marker-mid:none;marker-end:none;stroke-miterlimit:4;stroke-dasharray:none;stroke-dashoffset:0;stroke-opacity:1;visibility:visible;display:inline;overflow:visible"
     id="path13404" />
  <path
     d="M 18.825734,47.966577 L 18.825734,46.555338 L 22.579105,46.555338 L 22.579105,49.892031 C 22.21435,50.234843 21.685858,50.536707 20.99363,50.797623 C 20.301387,51.05854 19.600327,51.188999 18.890448,51.188999 C 17.988379,51.188999 17.202016,51.005215 16.531355,50.637645 C 15.860688,50.270076 15.356709,49.744433 15.019416,49.060715 C 14.682122,48.377 14.513476,47.633291 14.513476,46.829587 C 14.513476,45.957329 14.701733,45.182196 15.078247,44.504187 C 15.454759,43.82619 16.005802,43.30626 16.731377,42.944397 C 17.284379,42.666347 17.972692,42.527318 18.796319,42.52731 C 19.867025,42.527318 20.703394,42.745384 21.30543,43.181507 C 21.907452,43.617647 22.294751,44.220421 22.467328,44.989835 L 20.737719,45.304079 C 20.616129,44.892711 20.387672,44.567994 20.052346,44.329924 C 19.717008,44.091867 19.298333,43.972836 18.796319,43.972829 C 18.035444,43.972836 17.430473,44.207091 16.981406,44.675592 C 16.532332,45.144105 16.307797,45.83925 16.307799,46.761025 C 16.307797,47.75518 16.535274,48.500793 16.99023,48.997866 C 17.445181,49.494943 18.041327,49.743481 18.77867,49.743479 C 19.143413,49.743481 19.509141,49.673967 19.875855,49.534936 C 20.242558,49.395909 20.557299,49.227361 20.820081,49.02929 L 20.820081,47.966577 L 18.825734,47.966577 z M 23.302719,51.046162 L 26.250115,46.675322 L 23.579221,42.670148 L 25.614748,42.670148 L 27.344358,45.361213 L 29.038669,42.670148 L 31.056548,42.670148 L 28.373888,46.738171 L 31.321284,51.046162 L 29.221044,51.046162 L 27.30906,48.149409 L 25.391193,51.046162 L 23.302719,51.046162 z "
     style="font-size:11.87358856px;font-style:normal;font-variant:normal;font-weight:bold;font-stretch:normal;text-align:center;line-height:125%;writing-mode:lr-tb;text-anchor:middle;fill:#c33;fill-opacity:1;stroke:none;stroke-width:1px;stroke-linecap:butt;stroke-linejoin:miter;stroke-opacity:1;display:inline;font-family:FreeSans"
     id="text13434" />
  <path
     d="M 56.870257,29.886808 C 52.331336,29.886814 48.762369,30.11534 46.163344,30.572389 C 43.564498,31.029446 41.73425,31.799483 40.672601,32.882499 C 40.672719,31.392109 41.395674,30.246992 42.841422,29.447143 C 44.287422,28.647305 46.547779,28.093376 49.622495,27.785355 C 52.69738,27.477348 56.833712,27.323341 62.031498,27.323333 L 85.861236,27.323333 C 89.045931,27.323341 91.571647,27.258758 93.438407,27.129583 C 95.305307,27.000422 96.989148,26.697375 98.489879,26.220443 C 100.39339,25.46532 101.43663,24.794643 101.61959,24.208412 C 102.53477,25.192081 104.25519,25.967084 106.78088,26.533426 C 109.19685,27.060038 112.80241,27.323341 117.5976,27.323333 L 144.55703,27.323333 C 152.28064,27.323341 157.387,27.79033 159.87613,28.724302 C 162.40184,29.618544 163.66471,31.004606 163.66473,32.882499 C 162.31034,31.749802 160.41603,30.967348 157.98184,30.53513 C 155.54761,30.102921 152.061,29.886814 147.52201,29.886808 L 120.06842,29.886808 C 114.65094,29.886814 110.50546,29.655803 107.63195,29.193777 C 104.7585,28.731761 102.75442,27.844977 101.61959,26.533426 C 100.5581,27.884722 98.49908,28.78144 95.442554,29.223584 C 92.386098,29.665739 87.92944,29.886814 82.072636,29.886808 L 56.870257,29.886808 z "
     style="font-size:110.84521484px;font-style:normal;font-weight:normal;fill:#333;fill-opacity:1;stroke:none;stroke-width:1px;stroke-linecap:butt;stroke-linejoin:miter;stroke-opacity:1;display:inline;font-family:Bitstream Vera Sans"
     id="JasmineUPC_bracket" />
  <text
     x="100.71511"
     y="21.12479"
     transform="scale(1.014726,0.985488)"
     style="font-size:10.84813595px;font-style:normal;font-variant:normal;font-weight:normal;font-stretch:normal;text-align:end;line-height:125%;writing-mode:lr-tb;text-anchor:end;fill:#333;fill-opacity:1;stroke:none;stroke-width:1px;stroke-linecap:butt;stroke-linejoin:miter;stroke-opacity:1;display:inline;font-family:Bitstream Vera Sans"
     id="text2194"
     xml:space="preserve"><tspan
       x="100.71511"
       y="21.12479"
       style="text-align:center;text-anchor:middle;fill:#333"
       id="tspan2202">At risk</tspan></text>
  <path
     d="M 213.12051,23.880178 L 213.12051,31.058267"
     style="fill:#333;fill-rule:evenodd;stroke:#333;stroke-width:1px;stroke-linecap:butt;stroke-linejoin:miter;stroke-opacity:1;display:inline"
     id="path1914" />
  <path
     d="M 22.91738,23.880178 L 22.91738,31.058266"
     style="fill:#333;fill-rule:evenodd;stroke:#333;stroke-width:1px;stroke-linecap:butt;stroke-linejoin:miter;stroke-opacity:1;display:inline"
     id="path1917" />
  <path
     d="M 193.84961,46.677587 C 193.84961,53.542315 188.28465,59.107277 181.41992,59.107277 C 174.55519,59.107277 168.99023,53.542315 168.99023,46.677587 C 168.99023,39.81286 174.55519,34.247897 181.41992,34.247897 C 188.28465,34.247897 193.84961,39.81286 193.84961,46.677587 L 193.84961,46.677587 z "
     style="color:black;fill:#066;fill-opacity:1;fill-rule:nonzero;stroke:#676767;stroke-width:0.50581741;stroke-linecap:round;stroke-linejoin:miter;marker:none;marker-start:none;marker-mid:none;marker-end:none;stroke-miterlimit:4;stroke-dasharray:none;stroke-dashoffset:0;stroke-opacity:1;visibility:visible;display:inline;overflow:visible"
     id="path13414" />
  <path
     d="M 178.12542,47.966574 L 178.12542,46.555333 L 181.8788,46.555333 L 181.8788,49.89203 C 181.51405,50.234842 180.98555,50.536706 180.29332,50.797622 C 179.60107,51.05854 178.90002,51.188999 178.19014,51.188999 C 177.28807,51.188999 176.50171,51.005215 175.83104,50.637644 C 175.16037,50.270075 174.6564,49.744431 174.3191,49.060713 C 173.98181,48.376997 173.81316,47.633288 173.81316,46.829583 C 173.81316,45.957323 174.00142,45.18219 174.37793,44.50418 C 174.75445,43.826182 175.30549,43.306252 176.03107,42.944388 C 176.58406,42.666338 177.27238,42.52731 178.09601,42.527301 C 179.16671,42.52731 180.00309,42.745375 180.60513,43.181499 C 181.20714,43.617639 181.59444,44.220414 181.76702,44.989828 L 180.03741,45.304073 C 179.91582,44.892706 179.68737,44.567987 179.35204,44.329917 C 179.01669,44.091861 178.59802,43.972829 178.09601,43.972822 C 177.33513,43.972829 176.73016,44.207083 176.28109,44.675585 C 175.83202,45.1441 175.60748,45.839244 175.60749,46.76102 C 175.60748,47.755177 175.83496,48.50079 176.28992,48.997864 C 176.74486,49.494941 177.34102,49.743479 178.07836,49.743478 C 178.4431,49.743479 178.80883,49.673965 179.17555,49.534934 C 179.54225,49.395908 179.85699,49.227359 180.11977,49.029288 L 180.11977,47.966574 L 178.12542,47.966574 z M 186.35579,51.046162 L 186.35579,49.360673 L 182.82596,49.360673 L 182.82596,47.955146 L 186.56757,42.635858 L 187.95597,42.635858 L 187.95597,47.949433 L 189.02668,47.949433 L 189.02668,49.360673 L 187.95597,49.360673 L 187.95597,51.046162 L 186.35579,51.046162 z M 186.35579,47.949433 L 186.35579,45.086959 L 184.37321,47.949433 L 186.35579,47.949433 z "
     style="font-size:11.87360096px;font-style:normal;font-variant:normal;font-weight:bold;font-stretch:normal;text-align:center;line-height:125%;writing-mode:lr-tb;text-anchor:middle;fill:#9c9;fill-opacity:1;stroke:none;stroke-width:1px;stroke-linecap:butt;stroke-linejoin:miter;stroke-opacity:1;display:inline;font-family:FreeSans"
     id="text1899" />
  <path
     d="M 225.55011,46.677547 C 225.55011,53.542275 219.98515,59.107237 213.12042,59.107237 C 206.25569,59.107237 200.69073,53.542275 200.69073,46.677547 C 200.69073,39.81282 206.25569,34.247857 213.12042,34.247857 C 219.98515,34.247857 225.55011,39.81282 225.55011,46.677547 L 225.55011,46.677547 z "
     style="color:black;fill:#066;fill-opacity:1;fill-rule:nonzero;stroke:#676767;stroke-width:0.50581741;stroke-linecap:round;stroke-linejoin:miter;marker:none;marker-start:none;marker-mid:none;marker-end:none;stroke-miterlimit:4;stroke-dasharray:none;stroke-dashoffset:0;stroke-opacity:1;visibility:visible;display:inline;overflow:visible"
     id="path2072" />
  <path
     d="M 209.87004,47.966584 L 209.87004,46.555343 L 213.62342,46.555343 L 213.62342,49.892041 C 213.25867,50.234853 212.73018,50.536717 212.03794,50.797634 C 211.34569,51.058552 210.64464,51.18901 209.93476,51.18901 C 209.03269,51.18901 208.24633,51.005225 207.57566,50.637655 C 206.90499,50.270086 206.40102,49.744442 206.06372,49.060723 C 205.72643,48.377007 205.55778,47.633297 205.55778,46.829592 C 205.55778,45.957332 205.74603,45.182199 206.12254,44.504188 C 206.49906,43.82619 207.05011,43.30626 207.77569,42.944396 C 208.32868,42.666346 209.017,42.527317 209.84063,42.527309 C 210.91133,42.527317 211.74771,42.745382 212.34975,43.181507 C 212.95176,43.617647 213.33906,44.220422 213.51165,44.989837 L 211.78203,45.304081 C 211.66044,44.892713 211.43199,44.567995 211.09666,44.329925 C 210.76131,44.091868 210.34264,43.972837 209.84063,43.97283 C 209.07975,43.972837 208.47478,44.207092 208.02571,44.675594 C 207.57664,45.144108 207.3521,45.839253 207.35211,46.761029 C 207.3521,47.755185 207.57958,48.5008 208.03453,48.997874 C 208.48948,49.494952 209.08564,49.74349 209.82298,49.743489 C 210.18772,49.74349 210.55345,49.673976 210.92017,49.534945 C 211.28687,49.395918 211.60161,49.22737 211.86439,49.029298 L 211.86439,47.966584 L 209.87004,47.966584 z M 214.88239,48.892174 L 216.52964,48.726481 C 216.5767,49.08834 216.71593,49.374968 216.94734,49.586367 C 217.17874,49.797769 217.44543,49.903469 217.74743,49.903468 C 218.09257,49.903469 218.38476,49.767297 218.624,49.49495 C 218.86324,49.222608 218.98286,48.812186 218.98287,48.263686 C 218.98286,47.749473 218.86422,47.36381 218.62694,47.106698 C 218.38966,46.849593 218.0808,46.721039 217.70037,46.721035 C 217.2258,46.721039 216.80025,46.924821 216.42375,47.332382 L 215.08241,47.143836 L 215.92957,42.784417 L 220.30066,42.784417 L 220.30066,44.287074 L 217.18265,44.287074 L 216.92381,45.709741 C 217.29247,45.530723 217.66898,45.441211 218.05335,45.441205 C 218.78676,45.441211 219.4084,45.700224 219.91827,46.218245 C 220.42812,46.736276 220.68306,47.408566 220.68306,48.235119 C 220.68306,48.924553 220.47715,49.539708 220.06535,50.080587 C 219.50449,50.819536 218.72597,51.18901 217.72978,51.18901 C 216.93361,51.18901 216.28451,50.981419 215.78249,50.566237 C 215.28048,50.151055 214.98044,49.593034 214.88239,48.892174 L 214.88239,48.892174 z "
     style="font-size:11.87360668px;font-style:normal;font-variant:normal;font-weight:bold;font-stretch:normal;text-align:center;line-height:125%;writing-mode:lr-tb;text-anchor:middle;fill:white;fill-opacity:1;stroke:none;stroke-width:1px;stroke-linecap:butt;stroke-linejoin:miter;stroke-opacity:1;display:inline;font-family:FreeSans"
     id="text3021" />
  <g
     transform="translate(4.951209,6.581869)"
     id="g3041">
    <text
       x="205.1093"
       y="14.440681"
       transform="scale(1.014726,0.985488)"
       style="font-size:10.84811878px;font-style:normal;font-variant:normal;font-weight:normal;font-stretch:normal;text-align:end;line-height:125%;writing-mode:lr-tb;text-anchor:end;fill:#333;fill-opacity:1;stroke:none;stroke-width:1px;stroke-linecap:butt;stroke-linejoin:miter;stroke-opacity:1;display:inline;font-family:Bitstream Vera Sans"
       id="text3037"
       xml:space="preserve"><tspan
         x="205.1093"
         y="14.440681"
         style="text-align:center;text-anchor:middle;fill:#333"
         id="tspan3039">Secure</tspan></text>
  </g>
  <text
     x="22.192827"
     y="21.12479"
     transform="scale(1.014726,0.985488)"
     style="font-size:10.84811878px;font-style:normal;font-variant:normal;font-weight:normal;font-stretch:normal;text-align:end;line-height:125%;writing-mode:lr-tb;text-anchor:end;fill:#333;fill-opacity:1;stroke:none;stroke-width:1px;stroke-linecap:butt;stroke-linejoin:miter;stroke-opacity:1;display:inline;font-family:Bitstream Vera Sans"
     id="text8575"
     xml:space="preserve"><tspan
       x="22.192827"
       y="21.12479"
       style="text-align:center;text-anchor:middle;fill:#333"
       id="tspan8579">Extinct</tspan></text>
  <text
     x="26.560781"
     y="11.308965"
     transform="scale(1.014726,0.985488)"
     style="font-size:10.84812832px;font-style:normal;font-variant:normal;font-weight:normal;font-stretch:normal;text-align:end;line-height:125%;writing-mode:lr-tb;text-anchor:end;fill:#333;fill-opacity:1;stroke:none;stroke-width:1px;stroke-linecap:butt;stroke-linejoin:miter;stroke-opacity:1;display:inline;font-family:Bitstream Vera Sans"
     id="text3145"
     xml:space="preserve"><tspan
       x="26.560781"
       y="11.308965"
       style="text-align:center;text-anchor:middle;fill:#333"
       id="tspan3147">Presumed</tspan></text>
  <path
     d="M 67.04758,46.677537 C 67.04758,53.542265 61.482618,59.107227 54.61789,59.107227 C 47.753162,59.107227 42.1882,53.542265 42.1882,46.677537 C 42.1882,39.81281 47.753162,34.247847 54.61789,34.247847 C 61.482618,34.247847 67.04758,39.81281 67.04758,46.677537 L 67.04758,46.677537 z "
     style="color:black;fill:#c33;fill-opacity:1;fill-rule:nonzero;stroke:#676767;stroke-width:0.50581741;stroke-linecap:round;stroke-linejoin:miter;marker:none;marker-start:none;marker-mid:none;marker-end:none;stroke-miterlimit:4;stroke-dasharray:none;stroke-dashoffset:0;stroke-opacity:1;visibility:visible;display:inline;overflow:visible"
     id="path3538" />
  <path
     d="M 50.646849,47.966585 L 50.646849,46.555348 L 54.400218,46.555348 L 54.400218,49.892039 C 54.035463,50.234851 53.506971,50.536715 52.814743,50.79763 C 52.122501,51.058548 51.421441,51.189006 50.711562,51.189006 C 49.809494,51.189006 49.023131,51.005221 48.352469,50.637652 C 47.681802,50.270084 47.177824,49.744441 46.840532,49.060723 C 46.503238,48.377009 46.334591,47.6333 46.334591,46.829596 C 46.334591,45.957338 46.522847,45.182205 46.899362,44.504197 C 47.275874,43.826201 47.826917,43.306271 48.552492,42.944408 C 49.105493,42.666358 49.793806,42.527329 50.617433,42.527321 C 51.688139,42.527329 52.524507,42.745395 53.126543,43.181518 C 53.728565,43.617657 54.115863,44.220432 54.288441,44.989845 L 52.558831,45.304089 C 52.437243,44.892721 52.208785,44.568004 51.873459,44.329935 C 51.538121,44.091878 51.119446,43.972847 50.617433,43.97284 C 49.856558,43.972847 49.251588,44.207101 48.802521,44.675602 C 48.353448,45.144115 48.128912,45.839259 48.128914,46.761034 C 48.128912,47.755188 48.356388,48.500801 48.811345,48.997874 C 49.266295,49.494951 49.862441,49.743489 50.599784,49.743487 C 50.964527,49.743489 51.330255,49.673975 51.696969,49.534944 C 52.06367,49.395918 52.378412,49.227369 52.641194,49.029298 L 52.641194,47.966585 L 50.646849,47.966585 z M 56.006285,51.046168 L 56.006285,42.670159 L 57.74766,42.670159 L 57.74766,45.966856 L 61.159814,45.966856 L 61.159814,42.670159 L 62.90119,42.670159 L 62.90119,51.046168 L 61.159814,51.046168 L 61.159814,47.383807 L 57.74766,47.383807 L 57.74766,51.046168 L 56.006285,51.046168 z "
     style="font-size:11.87358379px;font-style:normal;font-variant:normal;font-weight:bold;font-stretch:normal;text-align:center;line-height:125%;writing-mode:lr-tb;text-anchor:middle;fill:#fcc;fill-opacity:1;stroke:none;stroke-width:1px;stroke-linecap:butt;stroke-linejoin:miter;stroke-opacity:1;display:inline;font-family:FreeSans"
     id="text3540" />
</svg>
